<svg width="15" height="15" fill="none" xmlns="http://www.w3.org/2000/svg"><path d="M11.599 15c-.146 0-.292-.017-.434-.049a14.618 14.618 0 01-7.216-3.885A14.615 14.615 0 01.042 3.852a2.078 2.078 0 01.05-1.028 2.04 2.04 0 01.536-.872L2.365.242a.865.865 0 01.668-.239.855.855 0 01.63.386l2.17 3.281a.723.723 0 01-.047.844l-1.09 1.332a8.41 8.41 0 001.81 2.614 8.354 8.354 0 002.636 1.816l1.35-1.096a.703.703 0 01.807-.054l3.278 2.167a.902.902 0 01.178 1.38l-1.693 1.714c-.193.196-.42.35-.672.456-.251.105-.52.159-.791.157zM2.964.882l-1.737 1.71a1.152 1.152 0 00-.326 1.065 13.718 13.718 0 003.652 6.775 13.75 13.75 0 006.79 3.653 1.167 1.167 0 001.085-.328l1.693-1.714-3.165-2.09-1.45 1.18a.43.43 0 01-.4.076 8.691 8.691 0 01-3.194-2.11 8.665 8.665 0 01-2.115-3.196.454.454 0 01.105-.421l1.172-1.434L2.964.882z" fill="#629E3B"/></svg>